<svg xmlns="http://www.w3.org/2000/svg" aria-hidden="true" style="position:absolute;width:0;height:0;overflow:hidden">
  <defs>
    <symbol id="close-button" viewBox="0 0 64 64">
      <path
        d="M64 6.448 57.552 0 32 25.552 6.448 0 0 6.448 25.552 32 0 57.552 6.448 64 32 38.448 57.552 64 64 57.552 38.448 32 64 6.448z" />
    </symbol>
    <symbol id="modal-email-icon" viewBox="0 0 48 64">
      <path
        d="M40 16H8c-2.2 0-3.98 1.8-3.98 4L4 44c0 2.2 1.8 4 4 4h32c2.2 0 4-1.8 4-4V20c0-2.2-1.8-4-4-4zm-.8 8.5-14.14 8.84c-.64.4-1.48.4-2.12 0L8.8 24.5c-.5-.32-.8-.86-.8-1.44 0-1.34 1.46-2.14 2.6-1.44L24 30l13.4-8.38c1.14-.7 2.6.1 2.6 1.44 0 .58-.3 1.12-.8 1.44z" />
    </symbol>
    <symbol id="modal-person-icon" viewBox="0 0 64 64">
      <path
        d="M32 32c5.893 0 10.667-4.773 10.667-10.667S37.894 10.666 32 10.666c-5.893 0-10.667 4.773-10.667 10.667S26.106 32 32 32zm0 5.333c-7.12 0-21.333 3.573-21.333 10.667v2.667c0 1.467 1.2 2.667 2.667 2.667h37.333c1.467 0 2.667-1.2 2.667-2.667V48c0-7.093-14.213-10.667-21.333-10.667z" />
    </symbol>
    <symbol id="modal-phone-icon" viewBox="0 0 48 64">
      <path
        d="m39.27 36.974-4.902-.56a3.842 3.842 0 0 0-3.165 1.1l-3.551 3.551a29.039 29.039 0 0 1-12.717-12.717l3.57-3.57a3.842 3.842 0 0 0 1.1-3.165l-.56-4.863a3.863 3.863 0 0 0-3.84-3.416h-3.339c-2.181 0-3.995 1.814-3.86 3.995C9.029 33.81 22.209 46.971 38.671 47.994c2.181.135 3.995-1.679 3.995-3.859v-3.339c.019-1.949-1.447-3.589-3.396-3.821z" />
    </symbol>
    <symbol id="footer-subscribe-icon" viewBox="0 0 64 64">
      <path
        d="m64 5.333-64 30 20.453 6.313L52 17 28.005 43.977l.019.006-.024-.006v14.69l11.47-11.151L54 52.001 64 5.334z" />
    </symbol>
    <symbol id="check-mark" viewBox="0 0 20 16">
      <path
        d="M16.891.51a1.834 1.834 0 0 1 2.558.02 1.855 1.855 0 0 1 .068 2.571L9.728 15.41a1.83 1.83 0 0 1-2.037.457 1.834 1.834 0 0 1-.613-.408L.586 8.932a1.863 1.863 0 0 1-.451-2.046 1.85 1.85 0 0 1 1.017-1.022 1.823 1.823 0 0 1 1.438.026c.225.101.429.247.597.429l5.137 5.163L16.845.567a.628.628 0 0 1 .049-.054h-.002z" />
    </symbol>
  </defs>
</svg>